<?xml version="1.0" encoding="UTF-8" standalone="no"?>
<svg
   xmlns:dc="http://purl.org/dc/elements/1.1/"
   xmlns:cc="http://creativecommons.org/ns#"
   xmlns:rdf="http://www.w3.org/1999/02/22-rdf-syntax-ns#"
   xmlns:svg="http://www.w3.org/2000/svg"
   xmlns="http://www.w3.org/2000/svg"
   version="1.1"
   id="Layer_1"
   x="0px"
   y="0px"
   viewBox="0 0 40.6688 40.6688"
   xml:space="preserve"
   width="40.6688"
   height="40.6688"><metadata
   id="metadata27"><rdf:RDF><cc:Work
       rdf:about=""><dc:format>image/svg+xml</dc:format><dc:type
         rdf:resource="http://purl.org/dc/dcmitype/StillImage" /><dc:title></dc:title></cc:Work></rdf:RDF></metadata><defs
   id="defs25" />



<g
   id="g876"
   transform="translate(0.33440018)"><g
     id="g8"
     transform="translate(0,-7)">
	<path
   style="fill:#de8787"
   d="M 2.633,32.5 C 1.457,32.5 0.5,31.543 0.5,30.367 V 9.633 C 0.5,8.457 1.457,7.5 2.633,7.5 h 34.733 c 1.176,0 2.133,0.957 2.133,2.133 v 20.733 c 0,1.176 -0.957,2.133 -2.133,2.133 H 2.633 Z"
   id="path2" />
	<g
   id="g6">
		<path
   style="fill:#782121"
   d="M 37.367,8 C 38.267,8 39,8.733 39,9.633 V 30.367 C 39,31.267 38.267,32 37.367,32 H 2.633 C 1.733,32 1,31.267 1,30.367 V 9.633 C 1,8.733 1.733,8 2.633,8 h 34.734 m 0,-1 H 2.633 C 1.185,7 0,8.185 0,9.633 V 30.367 C 0,31.815 1.185,33 2.633,33 H 37.367 C 38.815,33 40,31.815 40,30.367 V 9.633 C 40,8.185 38.815,7 37.367,7 Z"
   id="path4" />
	</g>
</g><g
     id="g14"
     transform="translate(0,-7)">
	<g
   id="g12">
		<polygon
   style="fill:#ffffff"
   points="9,27 9,18.111 13,23.667 17,17.944 17,27 21,27 21,13 17,13 13,18.6 9,13 5,13 5,27 "
   id="polygon10" />
	</g>
</g><g
     id="g20"
     transform="translate(0,-7)">
	<g
   id="g18">
		<polygon
   style="fill:#ffffff"
   points="30,27 36,20 32,20 32,13 28,13 28,20 24.25,20 "
   id="polygon16" />
	</g>
</g><g
     id="g37"
     transform="matrix(0.8591166,0,0,0.8591166,5.1688287,9.793657)"><path
       fill="#9aaab4"
       d="M 27.388,24.642 24.56,27.47 19.61,22.52 22.438,19.692 Z"
       id="path17"
       style="fill:#728896;fill-opacity:1;stroke-width:1.0006;stroke-miterlimit:4;stroke-dasharray:none" /><path
       fill="#66757f"
       d="m 34.683,29.11 -5.879,-5.879 c -0.781,-0.781 -2.047,-0.781 -2.828,0 l -2.828,2.828 c -0.781,0.781 -0.781,2.047 0,2.828 l 5.879,5.879 c 1.562,1.563 4.096,1.563 5.658,0 1.56,-1.561 1.559,-4.094 -0.002,-5.656 z"
       id="path19" /><circle
       fill="#bbddf5"
       cx="13.586"
       cy="13.669"
       r="9.5"
       id="circle23"
       style="fill:#4bddf5;fill-opacity:0.514944;stroke:#728896;stroke-width:2.66828;stroke-linecap:round;stroke-linejoin:round;stroke-miterlimit:4;stroke-dasharray:none;stroke-opacity:1" /></g></g></svg>
